<?xml version="1.0" encoding="UTF-8"?>
<!DOCTYPE svg PUBLIC "-//W3C//DTD SVG 1.1//EN" "http://www.w3.org/Graphics/SVG/1.1/DTD/svg11.dtd">
<svg xmlns="http://www.w3.org/2000/svg" version="1.1" width="1600px" height="815px" style="shape-rendering:geometricPrecision; text-rendering:geometricPrecision; image-rendering:optimizeQuality; fill-rule:evenodd; clip-rule:evenodd" xmlns:xlink="http://www.w3.org/1999/xlink">
<g><path style="opacity:1" fill="#1e2e5b" d="M -0.5,-0.5 C 17.8333,-0.5 36.1667,-0.5 54.5,-0.5C 36.5,18.1667 18.1667,36.5 -0.5,54.5C -0.5,36.1667 -0.5,17.8333 -0.5,-0.5 Z"/></g>
<g><path style="opacity:1" fill="#172755" d="M 54.5,-0.5 C 88.8333,-0.5 123.167,-0.5 157.5,-0.5C 194.839,37.6721 232.672,75.3387 271,112.5C 309.328,75.3387 347.161,37.6721 384.5,-0.5C 423.167,-0.5 461.833,-0.5 500.5,-0.5C 432.368,68.1321 364.035,136.632 295.5,205C 283.009,212.934 269.675,214.601 255.5,210C 250.902,207.73 246.569,205.063 242.5,202C 196.986,156.32 151.32,110.82 105.5,65.5C 70.1458,100.521 34.8124,135.521 -0.5,170.5C -0.5,131.833 -0.5,93.1667 -0.5,54.5C 18.1667,36.5 36.5,18.1667 54.5,-0.5 Z"/></g>
<g><path style="opacity:1" fill="#1e2e5b" d="M 157.5,-0.5 C 233.167,-0.5 308.833,-0.5 384.5,-0.5C 347.161,37.6721 309.328,75.3387 271,112.5C 232.672,75.3387 194.839,37.6721 157.5,-0.5 Z"/></g>
<g><path style="opacity:1" fill="#1e2e5b" d="M 500.5,-0.5 C 517.833,-0.5 535.167,-0.5 552.5,-0.5C 572.727,108.274 547.227,204.608 476,288.5C 395.993,373.288 297.826,408.788 181.5,395C 111.216,384.022 50.549,354.189 -0.5,305.5C -0.5,260.5 -0.5,215.5 -0.5,170.5C 34.8124,135.521 70.1458,100.521 105.5,65.5C 151.32,110.82 196.986,156.32 242.5,202C 246.569,205.063 250.902,207.73 255.5,210C 269.675,214.601 283.009,212.934 295.5,205C 364.035,136.632 432.368,68.1321 500.5,-0.5 Z"/></g>
<g><path style="opacity:1" fill="#172755" d="M 552.5,-0.5 C 703.5,-0.5 854.5,-0.5 1005.5,-0.5C 807.469,71.3582 664.969,203.358 578,395.5C 533.143,501.973 513.976,612.973 520.5,728.5C 346.919,751.391 173.252,774.391 -0.5,797.5C -0.5,633.5 -0.5,469.5 -0.5,305.5C 50.549,354.189 111.216,384.022 181.5,395C 297.826,408.788 395.993,373.288 476,288.5C 547.227,204.608 572.727,108.274 552.5,-0.5 Z"/></g>
<g><path style="opacity:1" fill="#1f2d5b" d="M 1005.5,-0.5 C 1160.83,-0.5 1316.17,-0.5 1471.5,-0.5C 1515.87,15.3499 1558.54,35.0165 1599.5,58.5C 1599.5,208.167 1599.5,357.833 1599.5,507.5C 1568.83,537.167 1539.16,567.167 1510.5,597.5C 1403.94,611.988 1297.27,626.321 1190.5,640.5C 1137.03,586.535 1083.37,532.701 1029.5,479C 995.814,451.643 959.814,448.31 921.5,469C 917.656,471.422 913.99,474.089 910.5,477C 833.632,553.701 756.965,630.535 680.5,707.5C 627.167,714.5 573.833,721.5 520.5,728.5C 513.976,612.973 533.143,501.973 578,395.5C 664.969,203.358 807.469,71.3582 1005.5,-0.5 Z"/></g>
<g><path style="opacity:1" fill="#172755" d="M 1471.5,-0.5 C 1514.17,-0.5 1556.83,-0.5 1599.5,-0.5C 1599.5,19.1667 1599.5,38.8333 1599.5,58.5C 1558.54,35.0165 1515.87,15.3499 1471.5,-0.5 Z"/></g>
<g><path style="opacity:1" fill="#172755" d="M 1190.5,640.5 C 1020.47,662.647 850.47,684.981 680.5,707.5C 756.965,630.535 833.632,553.701 910.5,477C 913.99,474.089 917.656,471.422 921.5,469C 959.814,448.31 995.814,451.643 1029.5,479C 1083.37,532.701 1137.03,586.535 1190.5,640.5 Z"/></g>
<g><path style="opacity:1" fill="#172755" d="M 1599.5,507.5 C 1599.5,533.833 1599.5,560.167 1599.5,586.5C 1569.83,590.263 1540.16,593.929 1510.5,597.5C 1539.16,567.167 1568.83,537.167 1599.5,507.5 Z"/></g>
<g><path style="opacity:1" fill="#ec2c82" d="M 1599.5,586.5 C 1599.5,592.167 1599.5,597.833 1599.5,603.5C 1066.65,673.356 533.98,743.689 1.5,814.5C 0.833333,814.5 0.166667,814.5 -0.5,814.5C -0.5,808.833 -0.5,803.167 -0.5,797.5C 173.252,774.391 346.919,751.391 520.5,728.5C 573.833,721.5 627.167,714.5 680.5,707.5C 850.47,684.981 1020.47,662.647 1190.5,640.5C 1297.27,626.321 1403.94,611.988 1510.5,597.5C 1540.16,593.929 1569.83,590.263 1599.5,586.5 Z"/></g>
<g><path style="opacity:1" fill="#eeedf4" d="M 1599.5,603.5 C 1599.5,673.833 1599.5,744.167 1599.5,814.5C 1066.83,814.5 534.167,814.5 1.5,814.5C 533.98,743.689 1066.65,673.356 1599.5,603.5 Z"/></g>
</svg>
